<svg width="164" height="145" viewBox="0 0 139 123" fill="none" xmlns="http://www.w3.org/2000/svg">
<g clip-path="url(#clip0_66_84)">
<path d="M55.4914 61.4813C55.4244 61.5714 55.3573 61.6615 55.2883 61.7543C54.6359 62.6362 54.0149 63.5313 53.4282 64.4563C53.381 64.5296 53.3339 64.603 53.2853 64.6786C52.2248 66.3013 52.2248 66.3013 52.0164 68.175C52.4646 69.7265 53.4758 70.4439 54.8399 71.2563C58.2315 73.0457 62.3048 73.4436 66.0907 73.4228C66.4594 73.4211 66.828 73.4228 67.1967 73.4248C69.3665 73.427 71.5546 73.2828 73.6673 72.7703C73.84 72.7297 73.84 72.7297 74.0162 72.6883C76.3975 72.1104 78.8368 71.2867 80.3526 69.2773C80.6122 68.4706 80.5931 67.6805 80.2033 66.9199C79.6008 65.9715 78.7835 65.4243 77.7532 64.9875C77.6884 64.9598 77.6236 64.9321 77.5568 64.9035C77.1169 64.7156 76.6755 64.5316 76.2328 64.35C76.2328 64.0313 76.2328 64.0313 76.4123 63.832C76.5351 63.7203 76.5351 63.7203 76.6604 63.6063C77.3108 62.9921 77.9028 62.3242 78.4047 61.5875C80.3649 61.7213 82.3286 62.9834 83.5863 64.3972C83.9104 64.7813 84.1606 65.1754 84.3774 65.625C84.4439 65.7509 84.4439 65.7509 84.5118 65.8794C85.5725 68.201 84.4666 71.631 83.6104 73.8793C83.3914 74.4389 83.1489 74.9792 82.8571 75.5063C82.5872 75.1102 82.6218 74.8219 82.6424 74.3661C82.6451 74.2864 82.6479 74.2067 82.6507 74.1245C82.6596 73.8701 82.6701 73.6157 82.6806 73.3613C82.6869 73.1887 82.6932 73.0162 82.6993 72.8436C82.7145 72.4207 82.7311 71.9978 82.7485 71.575C82.6768 71.575 82.6051 71.575 82.5313 71.575C81.6776 72.4103 81.1537 73.5112 80.6309 74.5633C79.8447 76.1191 78.7299 77.6139 77.4274 78.8C77.3031 78.9249 77.3031 78.9249 77.1763 79.0523C77.0799 79.1444 76.9836 79.2364 76.8844 79.3313C76.8164 79.3974 76.7483 79.4636 76.6783 79.5317C74.4375 81.6156 71.5545 82.8381 68.6313 83.6875C70.2504 84.2155 72.6199 83.5618 74.1696 83.05C74.2372 83.0277 74.3049 83.0054 74.3746 82.9824C75.3022 82.6717 76.1821 82.3013 77.0483 81.8511C77.4921 81.6231 77.9202 81.4836 78.4047 81.35C78.4764 81.2799 78.5481 81.2098 78.6219 81.1375C78.7294 81.1375 78.8369 81.1375 78.9477 81.1375C79.0194 80.9973 79.091 80.857 79.1649 80.7125C79.2366 80.7476 79.3082 80.7826 79.3821 80.8188C79.2208 81.0291 79.2208 81.0291 79.0563 81.2438C79.1236 81.2581 79.191 81.2725 79.2603 81.2873C79.9974 81.4626 80.6401 81.7229 81.3037 82.0766C81.6407 82.2449 81.8194 82.3216 82.1919 82.227C82.5174 82.0992 82.819 81.9573 83.1269 81.7933C83.2374 81.7345 83.348 81.6757 83.462 81.6152C83.5759 81.554 83.6899 81.4928 83.8073 81.4297C83.9195 81.3701 84.0318 81.3105 84.1475 81.2491C84.8502 80.8742 85.5407 80.4836 86.2235 80.075C86.3144 80.0209 86.4053 79.9668 86.4989 79.9111C88.6043 78.6553 90.6215 77.3428 92.4226 75.6872C92.6633 75.4688 92.9065 75.2581 93.1552 75.0489C93.7142 74.5729 94.2258 74.0535 94.7415 73.5336C94.8149 73.4606 94.8884 73.3876 94.964 73.3124C95.0623 73.2135 95.0623 73.2135 95.1627 73.1126C95.3453 72.9563 95.3453 72.9563 95.6711 72.85C95.9643 72.972 96.2429 73.1008 96.5263 73.2418C97.8662 73.8769 99.1119 74.1771 100.591 74.3335C100.696 74.3449 100.801 74.3564 100.909 74.3682C101.003 74.3778 101.098 74.3873 101.195 74.3971C101.427 74.4438 101.427 74.4438 101.644 74.6563C98.8595 77.9111 95.5013 81.0492 91.0016 81.5625C90.2781 81.6196 89.619 81.4737 88.9146 81.3239C88.7791 81.2974 88.6436 81.271 88.5039 81.2438C88.4338 81.2269 88.3636 81.21 88.2913 81.1926C87.6374 81.0636 87.2738 81.2734 86.7325 81.6223C86.57 81.7213 86.4074 81.8202 86.2447 81.919C86.1276 81.9916 86.1276 81.9916 86.0081 82.0657C84.6243 82.9144 83.0405 83.5431 81.4453 83.9C81.5529 83.9351 81.6604 83.9701 81.7711 84.0063C81.5981 84.0387 81.5981 84.0387 81.4216 84.0718C80.751 84.2362 80.1583 84.5652 79.545 84.8695C78.1905 85.5268 76.8207 86.0479 75.3641 86.45C75.2219 86.4893 75.2219 86.4893 75.0768 86.5295C71.3201 87.5336 67.1609 87.729 63.3102 87.1938C63.2148 87.1812 63.1193 87.1686 63.021 87.1557C59.8744 86.7286 55.2891 85.7612 53.1024 83.2625C52.9395 82.9305 52.9395 82.9305 52.9938 82.625C53.4501 82.0451 54.1762 81.7515 54.8399 81.4563C54.5028 80.9135 54.0992 80.506 53.6318 80.0684C50.6826 77.2332 48.9766 73.522 48.3243 69.5563C48.3035 69.4318 48.2828 69.3073 48.2615 69.179C48.052 67.5036 48.2358 66.0453 49.3016 64.6688C49.3733 64.5636 49.4449 64.4584 49.5188 64.35C49.5905 64.35 49.6621 64.35 49.736 64.35C49.736 64.2799 49.736 64.2098 49.736 64.1375C51.0175 62.9914 52.4917 62.1721 54.1069 61.5676C54.2389 61.5172 54.2389 61.5172 54.3736 61.4658C54.4563 61.4365 54.5391 61.4072 54.6244 61.3771C54.6975 61.3509 54.7706 61.3247 54.8459 61.2977C55.122 61.2598 55.2576 61.3423 55.4914 61.4813Z" fill="#FF6A00"/>
<path d="M50.0617 81.5625C50.1693 81.6151 50.1693 81.6151 50.2789 81.6688C50.3724 82.959 50.0497 83.979 49.193 84.9625C49.0836 85.1036 48.9748 85.2451 48.8672 85.3875C49.2004 85.4962 49.4098 85.5018 49.7576 85.4929C52.685 85.4399 55.368 85.945 57.6633 87.8313C57.7411 87.8919 57.819 87.9526 57.8992 88.0151C59.5583 89.365 60.586 91.3101 61.6613 93.101C61.7186 93.1957 61.7759 93.2903 61.8349 93.3878C61.9519 93.5831 62.0671 93.7794 62.1805 93.9767C62.2641 94.1197 62.2641 94.1197 62.3494 94.2656C62.3985 94.3513 62.4476 94.4369 62.4982 94.5252C62.6781 94.7633 62.8083 94.8541 63.093 94.95C63.3583 94.8766 63.3583 94.8766 63.636 94.7176C63.7502 94.6581 63.8644 94.5987 63.9821 94.5375C64.1203 94.4628 64.2583 94.3877 64.3961 94.3125C66.9537 92.9191 69.2645 92.0367 72.2149 91.8488C72.357 91.8388 72.499 91.8287 72.6454 91.8183C73.6938 91.749 73.6938 91.749 74.061 91.8688C73.9899 91.9126 73.9187 91.9564 73.8455 92.0016C73.306 92.3356 72.7736 92.6752 72.2488 93.0309C70.3403 94.2701 68.3087 94.8174 66.0929 95.3086C65.967 95.3366 65.8411 95.3645 65.7114 95.3933C65.5923 95.4188 65.4732 95.4442 65.3506 95.4705C65.245 95.4931 65.1394 95.5158 65.0306 95.5391C64.7055 95.5901 64.399 95.5959 64.0703 95.5875C64.0703 95.6927 64.0703 95.7979 64.0703 95.9063C64.1263 95.8865 64.1823 95.8668 64.24 95.8465C64.5047 95.8 64.5047 95.8 64.8279 95.8486C67.9551 96.3162 70.9781 95.5025 73.5296 93.7284C73.7448 93.5712 73.9576 93.4114 74.1696 93.25C74.2332 93.2023 74.2968 93.1547 74.3624 93.1055C75.1993 92.4776 75.9996 91.8242 76.7758 91.125C77.0626 90.8739 77.353 90.6271 77.6446 90.3813C77.792 90.2545 77.792 90.2545 77.9423 90.1252C79.0799 89.1668 80.1944 88.5086 81.6625 88.15C81.7441 88.1293 81.8257 88.1086 81.9098 88.0873C82.3564 88.0215 82.7997 88.0242 83.2507 88.0238C83.3439 88.0225 83.4372 88.0212 83.5332 88.0199C83.6228 88.0197 83.7124 88.0195 83.8047 88.0193C83.886 88.0188 83.9673 88.0184 84.051 88.0179C84.2688 88.0438 84.2688 88.0438 84.5946 88.2563C84.5156 88.3001 84.4367 88.3439 84.3553 88.3891C83.782 88.7112 83.2204 89.0409 82.6738 89.4051C82.1684 89.7394 81.6535 90.0483 81.1263 90.348C79.6113 91.2116 78.1066 92.09 76.6922 93.106C76.208 93.4515 75.7126 93.78 75.2169 94.1095C74.939 94.2935 74.939 94.2935 74.766 94.4777C74.5344 94.6971 74.2704 94.8228 73.9863 94.9699C73.8784 95.0262 73.7704 95.0825 73.6593 95.1405C73.5768 95.1828 73.4943 95.2251 73.4094 95.2688C75.363 94.5197 77.1904 93.5123 78.9868 92.4608C80.147 91.7849 81.3311 91.1646 82.5448 90.5859C82.686 90.5177 82.8265 90.448 82.9664 90.3773C83.4214 90.148 83.8681 89.9699 84.357 89.8168C85.2785 89.5015 86.0423 89.0553 86.7664 88.4156C88.2619 87.097 90.0527 86.6471 91.9737 86.2472C92.5903 86.1174 93.1484 85.9766 93.7164 85.7063C93.2835 86.9839 91.7947 87.8272 90.641 88.4513C89.3591 89.0714 87.9215 89.6121 86.5213 89.9005C86.4589 89.9189 86.3964 89.9373 86.3321 89.9563C86.2962 90.0264 86.2604 90.0965 86.2235 90.1688C86.0622 90.2213 86.0622 90.2213 85.8977 90.275C85.826 90.2399 85.7543 90.2049 85.6805 90.1688C85.6805 90.2389 85.6805 90.309 85.6805 90.3813C85.9819 90.3813 86.2077 90.344 86.4988 90.2762C86.5957 90.2537 86.6926 90.2312 86.7925 90.208C86.9442 90.1721 86.9442 90.1721 87.099 90.1355C87.1972 90.1129 87.2954 90.0902 87.3966 90.0669C88.5128 89.8053 89.5285 89.4802 90.5672 89C90.7864 88.9031 91.0057 88.8065 91.2251 88.7103C94.3158 87.3817 94.3158 87.3817 96.9742 85.3875C97.0459 85.4226 97.1176 85.4576 97.1914 85.4938C97.4235 86.4248 97.3455 87.2106 96.8657 88.0438C96.3248 88.7389 95.6467 89.2123 94.7549 89.3637C94.4789 89.3887 94.2037 89.405 93.9268 89.4184C92.8815 89.4915 91.9841 89.7205 91.0016 90.0625C90.7894 90.1259 90.5767 90.188 90.3636 90.2484C90.1262 90.3162 89.9197 90.3793 89.6985 90.4875C89.6268 90.4524 89.5551 90.4174 89.4813 90.3813C89.4813 90.4514 89.4813 90.5215 89.4813 90.5938C89.5777 90.5861 89.6742 90.5784 89.7735 90.5705C93.7926 90.2848 93.7926 90.2848 95.3453 90.8063C95.527 90.9719 95.527 90.9719 95.6711 91.125C93.0712 91.8476 90.4674 91.9981 87.7869 91.6337C86.6946 91.4856 85.5869 91.4775 84.486 91.4438C84.486 91.5489 84.486 91.6541 84.486 91.7625C84.5936 91.7678 84.5936 91.7678 84.7035 91.7731C85.7252 91.8385 86.7087 92.0287 87.7098 92.2273C88.0428 92.2927 88.3758 92.3576 88.7088 92.4224C88.7905 92.4383 88.8721 92.4542 88.9562 92.4706C89.5381 92.5831 90.1208 92.6909 90.7047 92.7935C90.7795 92.8068 90.8544 92.8202 90.9315 92.834C92.3873 93.0858 93.849 92.8834 95.2367 92.4C94.8362 92.8156 94.4189 93.1459 93.9336 93.4625C93.8628 93.5087 93.792 93.5549 93.719 93.6026C92.5179 94.3621 91.3333 94.651 89.9157 94.6645C89.7584 94.6691 89.7584 94.6691 89.5979 94.6738C88.1444 94.686 86.969 94.1296 85.7144 93.4625C84.1556 92.51 84.1556 92.51 82.4227 92.4C82.0925 92.5102 81.7725 92.6369 81.4521 92.7719C81.3631 92.8089 81.2741 92.8458 81.1824 92.8839C80.2924 93.2628 79.4549 93.7206 78.6219 94.2063C78.6219 94.2764 78.6219 94.3465 78.6219 94.4188C78.4606 94.4713 78.4606 94.4713 78.2961 94.525C78.4408 94.4905 78.4408 94.4905 78.5884 94.4553C81.0524 93.9298 83.2555 94.057 85.4116 95.3787C85.6805 95.5875 85.7607 95.7149 85.8977 96.0125C85.8082 96.0061 85.7187 95.9996 85.6266 95.993C82.1052 95.7439 78.663 95.8142 75.1469 96.1188C75.2649 96.1408 75.3829 96.1629 75.5045 96.1856C75.6277 96.2086 75.6277 96.2086 75.7533 96.2321C75.9475 96.2683 76.1417 96.3042 76.3359 96.3399C76.9316 96.4498 77.5264 96.5629 78.1204 96.6812C80.4165 97.1374 82.6754 97.5127 85.0289 97.5C84.6625 97.7949 84.2626 97.9908 83.8344 98.184C83.7623 98.2165 83.6901 98.2491 83.6158 98.2826C81.4432 99.2455 79.204 99.5395 76.9158 98.7406C76.234 98.4649 75.6083 98.1434 74.9844 97.7602C73.0611 96.6711 71.3794 96.8208 69.2828 97.1813C69.3418 97.1978 69.4008 97.2143 69.4615 97.2313C73.2505 98.3001 73.2505 98.3001 74.5352 99.8425C74.7775 100.126 75.0481 100.376 75.3225 100.63C75.4727 100.794 75.4727 100.794 75.5813 101.113C74.7224 100.988 73.981 100.717 73.1922 100.369C73.0815 100.32 72.9708 100.272 72.8567 100.222C72.2037 99.9324 71.5596 99.6268 70.9185 99.3129C70.8085 99.259 70.8085 99.259 70.6962 99.2041C70.3465 99.0324 69.9981 98.8588 69.6519 98.6804C68.4271 98.0582 67.1769 97.6049 65.8078 97.3938C65.8078 97.4639 65.8078 97.534 65.8078 97.6063C65.9043 97.6251 65.9043 97.6251 66.0027 97.6444C66.394 97.7557 66.6897 98.0179 67.0092 98.257C67.5823 98.6776 68.1605 99.0722 68.7704 99.4407C69.0994 99.6461 69.4138 99.8672 69.7308 100.09C70.9095 100.9 72.1339 101.555 73.5443 101.872C73.8476 101.964 73.9742 102.042 74.1696 102.281C73.7743 102.668 72.4195 102.592 71.8699 102.606C69.6393 102.596 67.7745 101.853 66.2015 100.34C65.5429 99.6699 65.0465 98.9637 64.6133 98.1375C64.6875 98.778 64.9388 99.3059 65.2076 99.8863C65.4543 100.443 65.5466 100.931 65.5907 101.538C64.3502 101.099 63.3528 100.187 62.7855 99.0211C62.3328 98.0318 62.3328 98.0318 62.3328 97.7125C61.6421 97.8169 60.9562 97.9377 60.2718 98.0759C59.8011 98.1704 59.3295 98.2603 58.8578 98.35C58.7728 98.3667 58.6877 98.3833 58.6 98.4005C57.4037 98.6293 56.2284 98.7007 55.0095 98.7086C54.8745 98.7101 54.7394 98.7115 54.6003 98.7131C52.6397 98.7033 50.9394 98.1237 49.5209 96.7795C49.2055 96.4405 48.9618 96.1066 48.7586 95.6938C48.7242 95.627 48.6897 95.5603 48.6543 95.4916C48.2508 94.5481 48.2789 93.269 48.5957 92.3004C49.1181 91.1269 50.0055 90.3443 51.1986 89.8438C52.5366 89.3996 53.8008 89.4791 55.0978 89.9961C55.8355 90.4429 56.2395 90.9372 56.686 91.6563C56.7532 91.7549 56.8203 91.8535 56.8896 91.9551C57.084 92.4941 57.1067 93.0053 57.0117 93.5688C56.7723 94.0373 56.4776 94.3422 56.0344 94.6313C55.2671 94.6908 55.2671 94.6908 54.8942 94.4719C54.8135 94.393 54.8135 94.393 54.7313 94.3125C54.7694 94.2051 54.8074 94.0977 54.8467 93.9871C54.9928 93.4663 54.963 93.0633 54.7096 92.5731C54.4763 92.1985 54.2874 91.9251 53.8965 91.7027C52.8587 91.5686 52.1064 91.61 51.2291 92.2207C50.7144 92.7129 50.5229 93.228 50.469 93.9141C50.5197 94.6592 50.7114 95.1001 51.2766 95.6141C52.803 96.8485 54.688 96.8755 56.5791 96.6998C58.079 96.5461 59.5539 96.3145 61.0297 96.0125C61.0297 95.6267 60.7463 95.3014 60.5478 94.9766C60.4986 94.8955 60.4494 94.8145 60.3988 94.731C59.6446 93.4958 58.8379 92.2997 57.9891 91.125C57.9311 91.0428 57.8732 90.9606 57.8135 90.876C57.4825 90.4209 57.1183 90.0617 56.6783 89.7056C56.4688 89.5313 56.4688 89.5313 56.2681 89.3233C54.5992 87.7734 52.0373 87.4412 49.8437 87.4864C47.2917 87.5822 44.5936 88.6043 42.786 90.3813C42.4414 90.7579 42.1236 91.1496 41.8086 91.55C41.5941 91.8003 41.3757 92.0469 41.1571 92.2938C40.5633 92.108 39.9888 91.9051 39.4196 91.6563C39.6441 91.0742 39.927 90.6607 40.3358 90.1887C41.3155 89.005 41.5639 87.8137 41.6131 86.306C41.6165 86.2069 41.6199 86.1079 41.6234 86.0058C41.6291 85.8098 41.6329 85.6137 41.6344 85.4177C41.65 84.8119 41.7278 84.4712 42.1344 84.0063C42.5151 83.82 42.9144 83.8294 43.3289 83.9C43.6904 84.2019 43.7464 84.3817 43.796 84.8388C43.8156 85.6731 43.6995 86.4811 43.5461 87.3C43.6197 87.2666 43.6934 87.2332 43.7692 87.1987C43.8703 87.1533 43.9714 87.1078 44.0755 87.0609C44.1844 87.0112 44.2933 86.9615 44.4055 86.9103C44.7406 86.7688 44.7406 86.7688 45.035 86.6837C45.6307 86.5088 45.8847 86.3233 46.1863 85.7859C46.2457 85.674 46.305 85.5621 46.3662 85.4469C47.0148 84.2728 48.047 83.2583 49.0844 82.4125C49.2704 82.2514 49.4559 82.0899 49.6409 81.9277C49.7812 81.806 49.9214 81.6842 50.0617 81.5625Z" fill="#FF6A00"/>
<path d="M28.9946 30.6688C30.1656 30.8483 31.1357 31.7657 32.0352 32.475C32.1232 32.5443 32.1232 32.5443 32.2131 32.615C33.6696 33.7696 34.9413 35.0349 36.0531 36.5125C36.1367 36.6226 36.2203 36.7327 36.3064 36.8462C37.2779 38.1713 38.1637 39.624 38.6594 41.1875C38.6938 41.295 38.7283 41.4025 38.7638 41.5133C38.9823 42.3286 38.9872 43.0661 38.9648 43.9035C38.9383 45.1891 39.2027 46.2516 39.6367 47.4563C39.7042 47.6521 39.7717 47.848 39.8391 48.044C40.4282 49.7188 41.128 51.3947 42.1344 52.875C42.1767 52.9375 42.2189 53.0001 42.2625 53.0645C43.2738 54.5756 43.2738 54.5756 44.4963 55.921C44.6321 56.0625 44.6321 56.0625 44.6321 56.275C44.7396 56.3101 44.8471 56.3451 44.9578 56.3813C44.9374 55.9388 44.9143 55.4966 44.8889 55.0544C44.8806 54.9042 44.8731 54.754 44.8662 54.6037C44.8562 54.3868 44.8436 54.1701 44.8306 53.9533C44.8203 53.758 44.8203 53.758 44.8099 53.5587C44.6969 52.9633 44.3728 52.5748 43.8923 52.211C43.381 51.7879 43.028 51.305 42.6774 50.75C42.627 50.6706 42.5766 50.5911 42.5247 50.5093C41.218 48.2174 41.5542 45.3704 42.2376 42.9448C42.7888 41.0864 43.6221 38.9276 44.9578 37.4688C45.0653 37.4688 45.1729 37.4688 45.2836 37.4688C47.256 39.4143 48.1889 42.851 48.7586 45.4375C48.7781 45.5244 48.7976 45.6112 48.8176 45.7007C49.2576 47.7214 49.4313 50.1747 48.3242 52.025C47.799 52.7972 47.158 53.4233 46.3696 53.9375C46.2458 54.5823 46.4128 55.3033 46.5189 55.943C46.5339 56.0356 46.549 56.1283 46.5645 56.2237C46.5943 56.4062 46.6245 56.5887 46.655 56.7712C46.6896 56.9833 46.7202 57.1961 46.7501 57.4089C46.7656 57.5124 46.7811 57.616 46.7971 57.7227C46.8154 57.8529 46.8154 57.8529 46.834 57.9858C46.9427 58.265 47.0709 58.2755 47.3469 58.4C47.5957 58.5912 47.8298 58.7988 48.0663 59.0043C48.5245 59.3984 48.9786 59.7611 49.4916 60.0867C49.846 60.3181 49.9411 60.3938 50.1296 60.784C50.1431 60.8738 50.1565 60.9637 50.1703 61.0563C50.0569 61.1666 49.941 61.2747 49.8242 61.3817C49.7278 61.4723 49.7278 61.4723 49.6295 61.5647C49.4102 61.6938 49.4102 61.6938 49.1497 61.6826C48.0102 61.2992 46.9724 60.3065 46.0438 59.5688C45.9854 59.5229 45.9271 59.4771 45.8669 59.4298C43.4722 57.5418 43.4722 57.5418 42.7376 56.4712C42.5317 56.2319 42.4245 56.2073 42.1123 56.1638C42.0237 56.1508 41.9351 56.1378 41.8438 56.1244C41.7516 56.1127 41.6593 56.1011 41.5643 56.0891C41.4737 56.0758 41.3831 56.0625 41.2898 56.0488C40.2171 55.8741 40.2171 55.8741 39.2431 56.2485C38.6173 56.6457 37.9644 56.8335 37.2477 57.0188C37.1756 57.0394 37.1035 57.0601 37.0292 57.0814C34.9032 57.5105 32.8633 56.4248 31.1382 55.3372C30.6464 55.0127 30.1989 54.6396 29.7547 54.2563C29.6622 54.1774 29.5697 54.0985 29.4743 54.0172C28.6505 53.304 27.8299 52.5867 27.2011 51.698C27.0338 51.4769 27.0338 51.4769 26.7807 51.2414C25.996 50.4703 25.3642 49.5288 24.7187 48.6449C24.6644 48.5714 24.6102 48.4978 24.5543 48.422C23.6735 47.2035 23.6735 47.2035 23.6735 46.7125C26.5671 46.1472 29.9589 46.4347 32.7478 47.3301C32.8537 47.364 32.9596 47.3979 33.0687 47.4328C34.656 47.97 36.0866 48.8213 37.1391 50.1125C37.2159 50.1999 37.2928 50.2873 37.372 50.3773C39.6367 52.982 39.6367 52.982 39.6367 54.15C40.0116 54.3588 40.3844 54.4448 40.8041 54.5352C40.9312 54.5628 41.0583 54.5905 41.1893 54.619C41.2862 54.6396 41.383 54.6601 41.4828 54.6813C41.4304 54.5981 41.4304 54.5981 41.377 54.5132C39.8857 52.1361 38.7125 49.7338 37.839 47.0753C37.6774 46.5652 37.6774 46.5652 37.4649 46.075C37.1682 45.9627 37.1682 45.9627 36.9414 45.9169C36.0209 45.7054 35.2011 45.3205 34.4242 44.8C34.28 44.7041 34.28 44.7041 34.1328 44.6062C30.9154 42.262 29.6504 37.0508 29.076 33.3781C28.9619 32.476 28.9754 31.5759 28.9946 30.6688Z" fill="#FF6A00"/>
<path d="M67.5453 14.8375C68.3211 15.5808 68.9466 16.3901 69.5178 17.2916C69.7699 17.6816 70.039 18.0587 70.3088 18.437C71.7333 20.4383 73.0754 22.496 74.2781 24.6324C74.3158 24.6994 74.3535 24.7664 74.3924 24.8354C75.3038 26.4596 76.0553 27.9993 76.45 29.8187C76.469 29.887 76.488 29.9553 76.5076 30.0257C76.7765 31.1755 76.585 32.539 76.2328 33.6437C76.2013 33.745 76.1698 33.8462 76.1374 33.9505C75.7828 34.9913 75.1909 35.8725 74.4953 36.725C74.4449 36.7911 74.3945 36.8573 74.3426 36.9255C73.2 38.3314 71.289 39.4128 69.4962 39.7598C67.0385 40.0251 65.0278 39.7112 62.8758 38.5312C62.7824 38.4803 62.689 38.4293 62.5928 38.3768C62.1515 38.1209 61.8236 37.8306 61.4641 37.4687C61.3782 37.3833 61.2924 37.2978 61.204 37.2098C59.4269 35.3671 58.6636 33.251 58.7233 30.7422C58.8755 27.0873 61.5295 23.3648 63.5829 20.4331C63.8549 20.0447 64.115 19.6492 64.3755 19.2534C65.0078 18.2927 65.66 17.3524 66.3508 16.4312C66.4616 16.2828 66.5725 16.1344 66.6833 15.9859C66.9699 15.6026 67.2574 15.2199 67.5453 14.8375Z" fill="#FF6A00"/>
<path d="M107.087 34.8723C107.948 35.5687 108.758 36.6965 108.983 37.7713C109.007 38.3511 108.872 38.7231 108.485 39.1687C108.206 39.3983 107.907 39.5913 107.602 39.7859C107.516 39.8422 107.43 39.8985 107.341 39.9565C107.067 40.1356 106.792 40.3129 106.517 40.4902C106.334 40.6089 106.152 40.7277 105.97 40.8465C105.704 41.0196 105.439 41.1926 105.173 41.365C104.667 41.6932 104.168 42.0279 103.672 42.3708C102.936 42.8713 102.186 43.3517 101.44 43.8371C101.268 43.9494 101.095 44.0616 100.923 44.1739C100.31 44.5732 99.6969 44.9725 99.0835 45.3713C98.5398 45.7252 97.9981 46.0809 97.4629 46.4469C97.0068 46.7572 96.5481 47.0628 96.0852 47.3633C95.6166 47.6675 95.1544 47.9787 94.6947 48.2955C93.5641 49.0683 92.4228 49.826 91.2736 50.572C90.7704 50.8993 90.271 51.2318 89.7731 51.5668C89.7057 51.6122 89.6382 51.6576 89.5686 51.7044C89.2749 51.9025 88.9818 52.1013 88.6902 52.3023C87.879 52.8616 87.0529 53.3977 86.2246 53.9323C85.5833 54.3483 84.9556 54.7775 84.3355 55.2232C83.9061 55.5284 83.4666 55.8184 83.0268 56.109C82.229 56.6399 81.4475 57.1834 80.6852 57.7625C80.5946 57.8306 80.5041 57.8986 80.4108 57.9688C79.4472 58.706 78.5098 59.498 77.7214 60.4158C77.5025 60.6701 77.2754 60.9161 77.0473 61.1625C76.76 61.4734 76.4769 61.7866 76.1989 62.1055C75.8511 62.4955 75.4845 62.8661 75.113 63.2344C75.0269 63.3206 75.0269 63.3206 74.9392 63.4086C74.7954 63.5496 74.6458 63.6847 74.4954 63.8187C74.4237 63.8187 74.352 63.8187 74.2782 63.8187C74.1717 63.4922 74.1707 63.294 74.2701 62.9667C74.2939 62.8852 74.3177 62.8037 74.3422 62.7198C74.381 62.5899 74.381 62.5899 74.4207 62.4574C74.7255 61.3729 74.9639 60.3228 74.9039 59.1927C74.8249 57.6147 74.8249 57.6147 75.1096 57.1503C75.3971 56.9267 75.6931 56.7657 76.0157 56.5937C76.2979 56.398 76.5699 56.1896 76.8437 55.9828C76.9939 55.8725 77.1444 55.7625 77.295 55.6529C77.3708 55.5976 77.4465 55.5424 77.5245 55.4854C77.6753 55.3755 77.826 55.2657 77.9767 55.1558C78.9361 54.4561 79.886 53.7467 80.824 53.0198C81.1415 52.7739 81.4596 52.5289 81.7779 52.284C81.8409 52.2355 81.904 52.187 81.9689 52.137C82.4476 51.7692 82.9296 51.4057 83.4127 51.0433C83.8339 50.727 84.2522 50.4073 84.6692 50.0859C86.122 48.9668 87.5844 47.8605 89.0542 46.763C89.8407 46.1755 90.6245 45.5847 91.4021 44.9859C92.6793 44.0024 93.9591 43.0233 95.2623 42.0729C95.8004 41.6795 96.3301 41.2768 96.8571 40.8693C97.4495 40.4112 98.0478 39.9608 98.6471 39.5114C98.8761 39.3394 99.1044 39.1666 99.3328 38.9939C99.9791 38.5059 100.631 38.0259 101.285 37.5484C101.767 37.1956 102.243 36.8361 102.716 36.4726C105.883 34.0418 105.883 34.0418 107.087 34.8723Z" fill="#FF6A00"/>
<path d="M68.8756 44.2621C69.0511 44.2635 69.0511 44.2635 69.2302 44.265C69.3193 44.2662 69.4083 44.2675 69.5 44.2687C69.2796 44.4844 69.1122 44.5685 68.8349 44.7004C67.7282 45.3008 67.1304 46.3366 66.6766 47.4562C66.3459 48.6029 66.8125 49.661 67.3214 50.6836C68.2572 52.5838 68.6366 54.7136 67.9073 56.7641C67.1231 58.7287 65.567 60.1337 63.8735 61.3617C62.1454 62.6153 60.2567 64.0005 59.8623 66.2193C59.7601 67.1823 59.7389 68.0694 60.2695 68.9187C60.4929 69.1842 60.7376 69.3668 61.0297 69.5562C61.1227 69.6173 61.2156 69.6784 61.3114 69.7414C62.8752 70.6997 64.611 70.9811 66.3983 71.2895C66.6159 71.3279 66.8334 71.3664 67.0509 71.405C67.5775 71.4983 68.1043 71.5902 68.6313 71.6812C68.6313 71.7514 68.6313 71.8215 68.6313 71.8937C68.8104 71.8937 68.9896 71.8937 69.1742 71.8937C69.1742 71.9288 69.1742 71.9639 69.1742 72C57.5699 72.1813 57.5699 72.1813 54.2969 69.2375C53.7717 68.6348 53.7058 68.2189 53.7539 67.4312C54.5828 63.6842 57.5167 60.939 60.5953 58.825C62.2799 57.7104 62.2799 57.7104 63.5274 56.1687C63.5726 56.0915 63.6178 56.0143 63.6644 55.9347C64.3243 54.6025 63.9677 53.2213 63.5817 51.8723C63.0936 50.163 62.877 48.6047 63.7832 46.9798C64.7278 45.5029 66.0544 44.771 67.7625 44.375C67.8711 44.3436 67.8711 44.3436 67.9818 44.3115C68.2818 44.2519 68.57 44.2589 68.8756 44.2621Z" fill="#FF6A00"/>
<path d="M26.714 66.7938C27.0469 66.9459 27.3331 67.1275 27.6303 67.3383C28.2842 67.7894 28.9542 68.2068 29.646 68.6C29.7189 68.6415 29.7918 68.6831 29.8669 68.7259C32.0417 69.9472 34.4084 70.639 36.8077 71.3054C41.0594 72.4902 43.9002 74.9514 46.0797 78.6975C46.1588 78.8376 46.2373 78.978 46.3152 79.1188C46.3506 79.1824 46.3861 79.246 46.4226 79.3115C46.6504 79.7364 46.792 80.1443 46.9124 80.6063C46.8517 80.587 46.7909 80.5676 46.7283 80.5477C44.6307 79.9043 42.709 79.7777 40.5461 80.0684C39.0592 80.2637 37.5694 80.4451 36.0802 80.1547C36.0028 80.1402 35.9253 80.1257 35.8455 80.1108C33.1337 79.577 30.85 77.9166 29.3067 75.7055C27.5552 73.0962 26.5755 69.9113 26.714 66.7938Z" fill="#FF6A00"/>
<path d="M109.571 54.575C109.59 54.783 109.608 54.9911 109.625 55.1992C109.635 55.3151 109.646 55.431 109.656 55.5503C109.89 59.5439 108.895 64.069 106.856 67.5375C106.783 67.6633 106.783 67.6633 106.709 67.7917C105.74 69.4538 104.655 70.9581 103.273 72.3187C103.18 72.4172 103.087 72.5157 102.991 72.6172C102.513 72.9952 101.924 72.9241 101.338 72.9098C101.218 72.908 101.097 72.9062 100.973 72.9044C99.4636 72.8632 98.1512 72.6025 96.8656 71.7875C97.254 70.9581 98.0145 70.3408 98.6672 69.709C98.9568 69.4223 99.2281 69.1251 99.496 68.8191C99.7194 68.5655 99.9482 68.3171 100.178 68.0687C100.468 67.7544 100.756 67.4388 101.04 67.1191C101.341 66.7794 101.651 66.4476 101.963 66.1164C102.375 65.6733 102.767 65.2214 103.145 64.7497C103.319 64.533 103.496 64.3191 103.675 64.1064C105.441 62.0023 107.712 59.2567 108.159 56.4875C107.767 56.8568 107.43 57.2374 107.101 57.6629C107.054 57.7233 107.007 57.7837 106.958 57.846C106.815 58.0303 106.673 58.2151 106.53 58.4C106.451 58.5035 106.371 58.6071 106.289 58.7138C105.942 59.1658 105.596 59.6186 105.252 60.073C104.525 61.0314 103.772 61.9648 102.997 62.8863C102.775 63.1497 102.556 63.4146 102.336 63.6793C101.788 64.3346 101.227 64.9799 100.666 65.625C100.128 65.1862 99.9726 64.7718 99.7976 64.1176C99.7709 64.0219 99.7441 63.9262 99.7166 63.8277C98.8408 60.5893 98.8408 60.5893 98.9289 59.5687C99.169 59.3488 99.169 59.3488 99.5126 59.1305C99.607 59.0699 99.607 59.0699 99.7032 59.0082C99.9143 58.8741 100.127 58.7432 100.341 58.6125C100.414 58.5667 100.487 58.5209 100.563 58.4737C103.087 56.896 105.756 55.7082 108.56 54.6904C108.684 54.6452 108.807 54.6001 108.935 54.5536C109.245 54.4687 109.245 54.4687 109.571 54.575Z" fill="#FF6A00"/>
<path d="M27.8 58.825C28.2123 58.9004 28.5438 59.0796 28.9131 59.2699C31.0628 60.3398 33.3703 60.8108 35.7206 61.2754C38.0313 61.7355 40.2153 62.2201 41.9172 63.925C42.0113 64.0083 42.1054 64.0916 42.2023 64.1774C44.7605 66.9439 45.0952 70.8695 45.175 74.4438C44.7048 74.2999 44.5056 74.1199 44.2181 73.7332C43.8195 73.2262 43.4075 72.8196 42.8946 72.425C42.8065 72.3563 42.7185 72.2875 42.6278 72.2167C41.3981 71.2971 40.0455 70.7553 38.5924 70.2789C33.8565 68.72 31.0149 66.3716 28.7392 61.9577C28.2324 60.9481 27.8296 59.9642 27.8 58.825Z" fill="#FF6A00"/>
<path d="M69.1742 50.75C70.16 50.9256 70.9864 51.9214 71.5632 52.6625C73.3118 55.2108 74.0022 58.0247 73.4093 61.0563C72.8477 63.5429 71.5017 65.4481 69.3401 66.8632C68.3355 67.4301 67.4443 67.3905 66.3236 67.3449C65.0089 67.2997 63.8367 67.3576 62.55 67.6438C62.3329 67.6864 62.1157 67.7286 61.8984 67.7699C61.7536 67.7986 61.6088 67.8273 61.464 67.8563C61.464 67.7861 61.464 67.716 61.464 67.6438C61.3923 67.6438 61.3207 67.6438 61.2468 67.6438C61.3122 65.991 61.9667 64.7262 63.1918 63.5847C63.6579 63.1925 64.1494 62.8323 64.6406 62.4711C67.1239 60.642 69.1066 58.746 69.6722 55.6026C69.8247 54.2792 69.7691 53.026 69.3884 51.7469C69.2907 51.4146 69.2249 51.0918 69.1742 50.75Z" fill="#FF6A00"/>
<path d="M95.5625 72.85C95.914 72.9817 96.2495 73.1344 96.5887 73.2937C97.912 73.9042 99.1435 74.1806 100.591 74.3334C100.748 74.3506 100.748 74.3506 100.909 74.3682C101.003 74.3778 101.098 74.3873 101.195 74.3971C101.427 74.4438 101.427 74.4438 101.644 74.6563C98.8595 77.9111 95.5013 81.0492 91.0016 81.5625C90.2781 81.6196 89.619 81.4737 88.9146 81.3239C88.7791 81.2974 88.6436 81.271 88.504 81.2438C88.3987 81.2184 88.3987 81.2184 88.2914 81.1926C87.6374 81.0636 87.2738 81.2734 86.7325 81.6223C86.57 81.7213 86.4074 81.8202 86.2447 81.919C86.1666 81.9674 86.0885 82.0158 86.0081 82.0657C84.9425 82.7193 83.8318 83.1604 82.6467 83.5547C82.576 83.5784 82.5052 83.6021 82.4324 83.6265C82.125 83.7266 81.8803 83.7938 81.554 83.7938C81.6625 83.475 81.6625 83.475 81.9883 83.2625C82.0277 83.0524 82.0277 83.0524 82.0087 82.8242C82.002 82.6884 81.9953 82.5525 81.9883 82.4125C82.242 82.2722 82.4957 82.1319 82.7494 81.9917C82.9736 81.8676 83.1977 81.7435 83.4218 81.6194C83.9906 81.3043 84.5599 80.9905 85.1316 80.6805C88.764 78.7053 91.9505 76.3312 94.8575 73.4297C95.3232 72.9671 95.3232 72.9671 95.5625 72.85Z" fill="#FF6A00"/>
<path d="M91.8703 65.8375C91.9778 65.8726 92.0853 65.9076 92.1961 65.9437C92.2089 66.0073 92.2217 66.0708 92.235 66.1362C92.7857 69.0468 92.7857 69.0468 94.0761 71.6991C94.1507 71.8937 94.1507 71.8937 94.0886 72.0758C93.8619 72.4311 93.5682 72.7064 93.2654 73.0007C93.1987 73.0662 93.1319 73.1317 93.0631 73.1992C92.9215 73.338 92.7795 73.4765 92.6373 73.6147C92.4234 73.8228 92.2107 74.0321 91.9982 74.2414C91.3089 74.9165 90.6173 75.5636 89.8486 76.1525C89.5615 76.3786 89.2945 76.6201 89.0265 76.8676C88.5303 77.3144 88.011 77.7194 87.4722 78.116C87.3967 78.1718 87.3213 78.2276 87.2435 78.2851C86.6995 78.6801 86.6995 78.6801 86.332 78.8C85.7421 77.9343 86.1036 76.3168 86.2913 75.3402C86.5054 74.3027 86.8133 73.3063 87.2007 72.3187C87.2291 72.2461 87.2575 72.1734 87.2868 72.0985C88.2704 69.6357 89.9676 67.6787 91.8703 65.8375Z" fill="#FF6A00"/>
<path d="M97.3 60.95C97.6592 61.2279 97.7108 61.5124 97.8048 61.9411C97.8353 62.0759 97.8658 62.2107 97.8972 62.3495C97.9127 62.4204 97.9282 62.4913 97.9442 62.5643C98.0243 62.9283 98.1086 63.2914 98.1934 63.6544C98.2098 63.725 98.2263 63.7957 98.2433 63.8685C98.4457 64.7249 98.6692 65.6093 99.1207 66.3754C99.2547 66.6875 99.2547 66.6875 99.1983 66.9577C99.0056 67.2706 98.785 67.5176 98.5285 67.7832C98.1988 68.1285 97.8719 68.4734 97.5579 68.8324C97.233 69.199 96.8859 69.5385 96.5326 69.8787C96.2273 70.1823 95.9497 70.5041 95.6711 70.8313C95.2796 70.732 95.1487 70.6496 94.9241 70.3129C94.8607 70.1835 94.7999 70.053 94.7413 69.9215C94.7091 69.8517 94.6768 69.7819 94.6437 69.71C93.8848 67.9859 93.5018 65.9391 94.1508 64.1375C94.7413 62.8565 96.1533 61.749 97.3 60.95Z" fill="#FF6A00"/>
<path d="M42.1403 31.4602C42.2656 31.4877 42.2656 31.4877 42.3934 31.5158C42.572 31.555 42.7505 31.5949 42.9288 31.6354C43.3985 31.7413 43.8698 31.8402 44.341 31.9392C44.4337 31.9587 44.5264 31.9782 44.6219 31.9984C46.1298 32.3133 47.6159 32.466 49.1556 32.5178C49.2587 32.5215 49.3617 32.5252 49.4679 32.5291C49.9893 32.5479 50.5104 32.5633 51.0322 32.5723C51.2251 32.5781 51.418 32.584 51.6109 32.59C51.7001 32.5903 51.7894 32.5907 51.8813 32.591C52.1241 32.6004 52.3278 32.6155 52.5594 32.6875C52.8958 33.053 52.9957 33.2161 52.987 33.7102C52.8863 34.0648 52.8128 34.2298 52.5594 34.4938C52.1739 34.6251 51.7693 34.6583 51.3649 34.7063C51.2685 34.7182 51.1722 34.7301 51.073 34.7424C48.4503 35.0085 45.7859 34.7095 43.2067 34.2348C43.0943 34.2143 42.9819 34.1938 42.8661 34.1726C41.9985 34.0029 41.1132 33.7998 40.3765 33.3051C40.0992 32.884 40.083 32.5374 40.1797 32.05C40.3808 31.6943 40.5256 31.5587 40.9013 31.3892C41.3516 31.2867 41.7011 31.3559 42.1403 31.4602Z" fill="#FF6A00"/>
<path d="M45.5065 20.4559C45.618 20.4999 45.7295 20.5438 45.8444 20.5891C45.9732 20.639 46.102 20.6889 46.2348 20.7403C46.303 20.7674 46.3712 20.7945 46.4415 20.8224C46.7351 20.939 47.0299 21.0528 47.3246 21.1668C47.4822 21.2278 47.6397 21.2889 47.7972 21.3502C48.7445 21.7182 49.6984 22.0694 50.6522 22.4211C50.8176 22.4822 50.9831 22.5434 51.1485 22.6046C51.2284 22.6341 51.3084 22.6636 51.3907 22.694C51.5482 22.7523 51.7057 22.8106 51.8632 22.869C52.2575 23.0151 52.6526 23.1583 53.0496 23.2973C53.1287 23.3254 53.2078 23.3534 53.2894 23.3823C53.4388 23.4352 53.5885 23.4872 53.7386 23.5384C54.2989 23.7378 54.6737 23.9835 54.9484 24.5062C55.1039 24.8731 55.0732 24.9934 54.9348 25.3695C54.7056 25.7135 54.5767 25.8417 54.1883 25.9937C53.0465 26.1592 51.8095 25.5365 50.8023 25.0682C50.4651 24.9174 50.1229 24.7886 49.7766 24.659C48.1464 24.0354 46.5656 23.2583 45.0324 22.4344C44.9534 22.3922 44.8743 22.3501 44.7929 22.3066C44.3968 22.0889 44.0542 21.8812 43.7633 21.5312C43.709 21.2125 43.709 21.2125 43.7633 20.8937C44.254 20.3015 44.7636 20.2465 45.5065 20.4559Z" fill="#FF6A00"/>
<path d="M73.7432 65.1016C74.3098 65.1919 74.8609 65.3351 75.4115 65.4922C75.5622 65.535 75.5622 65.535 75.716 65.5787C76.9975 65.9536 78.1646 66.4507 78.8501 67.6367C79.0196 68.0182 79.0754 68.3039 78.9476 68.7063C78.4093 69.664 77.2455 70.2368 76.2328 70.6188C75.9274 70.6789 75.9274 70.6789 75.6898 70.6188C75.5011 70.3855 75.5011 70.3855 75.3301 70.0742C74.5702 68.8205 73.3296 68.3911 71.9433 68.0422C71.8333 68.0137 71.7233 67.9852 71.6099 67.9559C71.3412 67.8864 71.0723 67.8178 70.8031 67.75C70.9238 67.3957 71.0197 67.314 71.3053 67.0793C71.3839 67.0137 71.4624 66.9481 71.5433 66.8805C71.6879 66.7628 71.8334 66.6461 71.9802 66.531C72.4454 66.1606 72.7532 65.773 73.0658 65.2702C73.3421 65.0628 73.4073 65.0721 73.7432 65.1016Z" fill="#FF6A00"/>
<path d="M90.0242 19.5125C90.347 19.8283 90.438 20.04 90.5197 20.4754C90.4347 20.9096 90.2599 21.0329 89.9156 21.3187C89.5906 21.4927 89.2529 21.6309 88.9111 21.7703C87.1043 22.5408 85.4947 23.4673 83.8659 24.5534C83.5478 24.7649 83.2275 24.9724 82.9046 25.1769C82.8193 25.2313 82.7341 25.2857 82.6462 25.3417C82.4192 25.4644 82.2454 25.5365 81.9883 25.5687C81.6001 25.4312 81.3045 25.3247 81.011 25.0375C80.9 24.6167 80.9242 24.2381 81.1365 23.8542C82.673 22.0058 87.4605 18.8878 90.0242 19.5125Z" fill="#FF6A00"/>
<path d="M98.1687 49.2625C98.2762 49.2625 98.3837 49.2625 98.4945 49.2625C98.4402 49.8362 98.3267 50.3435 98.1382 50.8895C98.0705 51.1369 98.0317 51.3645 98.001 51.6179C97.9846 51.7522 97.9683 51.8866 97.9515 52.025C98.0571 52.0089 98.1627 51.9928 98.2715 51.9762C98.6687 51.916 99.066 51.8568 99.4634 51.798C99.6344 51.7726 99.8053 51.7468 99.9761 51.7207C100.935 51.5746 101.864 51.4468 102.838 51.4938C101.949 52.7109 100.828 54.2272 99.2508 54.5152C99.1849 54.524 99.1189 54.5328 99.051 54.5418C98.7682 54.5825 98.4899 54.6384 98.2099 54.6945C97.7881 54.7769 97.3662 54.8584 96.9428 54.9324C96.8547 54.948 96.7665 54.9637 96.6757 54.9798C96.4187 55.001 96.24 54.9748 95.9968 54.8938C95.8883 54.7875 95.8883 54.7875 95.8824 54.5807C95.8947 54.2888 95.9077 53.9969 95.9222 53.7051C95.926 53.6045 95.9299 53.5039 95.9339 53.4002C96.0053 51.9057 96.7828 50.9151 97.7343 49.7938C97.808 49.6958 97.8816 49.5979 97.9575 49.497C98.0272 49.4196 98.0969 49.3422 98.1687 49.2625Z" fill="#FF6A00"/>
<path d="M94.5852 53.3C94.6569 53.3 94.7285 53.3 94.8024 53.3C94.7925 53.4007 94.7925 53.4007 94.7825 53.5034C94.7258 54.0948 94.6737 54.6867 94.6259 55.2789C94.6104 55.4683 94.6104 55.4683 94.5945 55.6616C94.5899 55.8074 94.5899 55.8074 94.5852 55.9562C94.7081 56.1004 94.7081 56.1004 95.0317 56.0766C95.446 56.0628 95.8299 56.0133 96.2379 55.9425C96.3853 55.9178 96.5328 55.8931 96.6803 55.8685C96.9091 55.8295 97.1378 55.7901 97.3665 55.7502C97.5896 55.7115 97.813 55.6742 98.0364 55.6371C98.1687 55.6143 98.3009 55.5914 98.4371 55.5679C98.8407 55.5293 99.1829 55.5657 99.5805 55.6375C99.5039 55.7121 99.4274 55.7868 99.3485 55.8637C99.1408 56.0667 98.9349 56.2713 98.73 56.4771C97.6833 57.5248 96.9687 58.1282 95.454 58.4C95.2419 58.445 95.0298 58.49 94.8178 58.5352C93.5862 58.7912 93.5862 58.7912 92.9563 58.7187C92.6918 58.3305 92.6633 58.0028 92.6305 57.55C92.6234 57.457 92.6162 57.364 92.6089 57.2682C92.5467 55.7717 93.5317 54.6094 94.4244 53.4681C94.4775 53.4126 94.5305 53.3571 94.5852 53.3Z" fill="#FF6A00"/>
<path d="M85.1455 30.0047C85.4723 30.2122 85.6891 30.4599 85.8976 30.775C85.9549 30.8603 86.0121 30.9456 86.0711 31.0336C86.5184 31.7298 86.6739 32.2127 86.6646 33.0394C86.6636 33.153 86.6626 33.2665 86.6616 33.3835C86.6603 33.4694 86.6591 33.5553 86.6578 33.6437C85.5233 33.9082 84.526 34.0341 83.4814 33.4445C83.0671 33.1312 83.0671 33.1312 82.9656 32.7937C82.952 32.4484 82.952 32.4484 82.9656 32.1562C82.8939 32.1562 82.8223 32.1562 82.7484 32.1562C82.7484 32.0861 82.7484 32.016 82.7484 31.9437C82.6857 31.9306 82.623 31.9174 82.5584 31.9039C82.0804 31.774 82.0804 31.774 81.8797 31.625C81.7535 31.1971 81.7432 30.9559 81.9 30.5359C82.605 29.4893 84.0867 29.4747 85.1455 30.0047Z" fill="#FF6A00"/>
<path d="M104.671 45.9555C104.902 46.075 104.902 46.075 105.044 46.3473C105.081 46.4755 105.081 46.4755 105.119 46.6063C104.61 47.1964 104.071 47.7369 103.494 48.2643C103.224 48.5329 103.224 48.5329 103.164 49.05C103.702 49.05 104.239 49.05 104.793 49.05C104.847 49.2078 104.847 49.2078 104.902 49.3688C104.711 49.5059 104.518 49.6404 104.325 49.7738C104.218 49.849 104.11 49.9242 104 50.0017C103.12 50.5294 102.029 50.6068 101.026 50.7168C100.907 50.7306 100.788 50.7443 100.666 50.7585C100.376 50.7919 100.087 50.8245 99.7976 50.8563C99.47 50.2151 99.7456 48.9885 99.9673 48.3328C100.247 47.6655 100.673 47.0827 101.101 46.5C101.172 46.5351 101.244 46.5701 101.318 46.6063C101.363 46.8955 101.363 46.8955 101.386 47.2504C101.394 47.3678 101.402 47.4852 101.41 47.6061C101.416 47.6969 101.421 47.7877 101.427 47.8813C101.534 47.9163 101.642 47.9514 101.752 47.9875C101.955 47.8609 101.955 47.8609 102.153 47.6688C102.229 47.6 102.306 47.5312 102.385 47.4604C102.463 47.3889 102.541 47.3174 102.621 47.2438C104.027 45.9829 104.027 45.9829 104.671 45.9555Z" fill="#FF6A00"/>
<path d="M80.9159 42.4558C81.1317 42.5635 81.3469 42.6721 81.5618 42.7814C81.7668 42.8853 81.9728 42.987 82.1791 43.0884C82.3043 43.1514 82.4294 43.2144 82.5584 43.2793C82.6687 43.3345 82.779 43.3897 82.8926 43.4465C83.3486 43.7368 83.5766 44.0237 83.7257 44.5344C83.7257 44.9062 83.7257 44.9062 83.5696 45.2051C83.2069 45.508 82.8923 45.629 82.4226 45.65C81.0873 45.5223 79.8392 44.6317 78.8971 43.7508C78.3873 43.3327 77.8087 43.0117 77.2407 42.6754C76.8843 42.4625 76.8843 42.4625 76.7757 42.3562C76.7472 41.9279 76.7438 41.7656 76.9929 41.4C78.2802 40.9802 79.7828 41.9028 80.9159 42.4558Z" fill="#FF6A00"/>
<path d="M74.1696 45.3312C74.4083 45.5049 74.5355 45.6353 74.7125 45.8625C74.7772 45.944 74.8419 46.0255 74.9085 46.1094C76.0866 47.6456 77.0564 49.1816 76.8844 51.175C76.6944 51.4315 76.6944 51.4315 76.45 51.6C75.842 51.6661 75.5447 51.6333 75.0383 51.2812C74.8825 51.0282 74.8825 51.0282 74.7583 50.7288C74.7112 50.6186 74.664 50.5085 74.6153 50.3949C74.5668 50.2776 74.5182 50.1603 74.4682 50.0394C74.087 49.149 73.696 48.2929 73.1628 47.4788C72.8594 46.9945 72.7465 46.5323 72.7578 45.9687C72.8936 45.65 72.8936 45.65 73.0836 45.4375C73.4787 45.3087 73.7544 45.2892 74.1696 45.3312Z" fill="#FF6A00"/>
<path d="M91.2188 57.125C91.5446 57.3375 91.5446 57.3375 91.626 57.6961C91.6828 58.2872 91.6097 58.8745 91.5446 59.4625C91.9002 59.6195 92.1475 59.7034 92.5355 59.6551C92.6283 59.6438 92.7211 59.6326 92.8167 59.621C93.1035 59.579 93.3898 59.5351 93.6761 59.4899C93.7663 59.4757 93.8565 59.4615 93.9495 59.4468C94.1302 59.4179 94.3108 59.3884 94.4913 59.358C95.0013 59.2749 95.4799 59.2344 95.9969 59.25C95.9969 59.3201 95.9969 59.3903 95.9969 59.4625C95.7839 59.6316 95.5545 59.7675 95.3229 59.9112C95.1162 60.0398 94.9129 60.1738 94.7129 60.3121C93.8467 60.8861 93.0322 61.1389 92.0205 61.3638C91.3095 61.529 90.7635 61.7711 90.2279 62.2648C90.1352 62.3487 90.0425 62.4325 89.947 62.5188C89.754 62.7032 89.5766 62.8897 89.3998 63.0883C89.1555 63.2875 89.1555 63.2875 88.8094 63.2742C88.5039 63.1813 88.5039 63.1813 88.2867 63.075C88.334 62.5471 88.4521 62.3215 88.8501 61.966C88.9817 61.8419 88.9817 61.8419 89.116 61.7153C89.2679 61.5768 89.4215 61.4399 89.5784 61.3069C90.1066 60.8091 90.0758 60.33 90.0976 59.6364C90.1828 58.7015 90.6927 57.8898 91.2188 57.125Z" fill="#FF6A00"/>
<path d="M59.4212 43.1C59.7266 43.2063 59.7266 43.2063 59.9302 43.3789C60.1564 43.8461 60.1198 44.1875 59.9493 44.6618C59.857 44.8797 59.7613 45.0964 59.663 45.3117C59.5633 45.5313 59.4695 45.7535 59.383 45.9783C58.9489 47.1009 58.1465 48.2824 57.0117 48.8375C56.6043 48.8818 56.4101 48.8668 56.0548 48.6582C55.7858 48.3801 55.7444 48.2559 55.7086 47.8813C55.7862 47.68 55.7862 47.68 55.919 47.4762C56.1489 47.1051 56.3474 46.7304 56.5346 46.3369C56.887 45.6059 57.2923 44.9443 57.7855 44.2953C57.8387 44.2244 57.892 44.1535 57.9469 44.0805C58.3375 43.5828 58.737 43.1 59.4212 43.1Z" fill="#FF6A00"/>
<path d="M89.807 34.8125C90.0272 34.9744 90.0272 34.9744 90.2346 35.1711C90.506 35.4191 90.6736 35.5554 91.0219 35.6957C91.5195 35.9878 91.7084 36.4019 91.8703 36.9375C91.9121 37.4371 91.9034 37.9251 91.8703 38.425C91.4296 38.5032 91.0229 38.5367 90.5744 38.5259C90.3458 38.5313 90.1455 38.5711 89.9224 38.6176C89.445 38.6793 89.1205 38.5344 88.7198 38.286C88.2217 37.8714 88.0919 37.4037 88.0368 36.7798C88.0241 36.1595 88.0162 35.5974 88.2867 35.025C88.5026 34.8893 88.5026 34.8893 88.755 34.8191C88.8375 34.7941 88.9199 34.769 89.0049 34.7432C89.3112 34.6995 89.5117 34.7209 89.807 34.8125Z" fill="#FF6A00"/>
<path d="M89.0469 26.7375C89.1655 26.757 89.1655 26.757 89.2865 26.7769C89.4812 26.8438 89.4812 26.8438 89.6984 27.1625C89.822 27.772 89.7937 28.2371 89.617 28.8359C89.5763 28.9837 89.5355 29.1314 89.4948 29.2792C89.4742 29.3517 89.4537 29.4242 89.4325 29.499C89.3435 29.8167 89.2632 30.1364 89.1826 30.4563C89.1374 30.6333 89.0921 30.8104 89.0469 30.9875C87.6998 31.391 87.6998 31.391 87.3094 31.2C87.1339 30.7492 87.0077 30.2831 86.875 29.8188C86.8485 29.7295 86.8221 29.6402 86.7948 29.5481C86.609 28.8507 86.6434 28.2473 86.8886 27.5676C87.4926 26.6812 87.9802 26.5217 89.0469 26.7375Z" fill="#FF6A00"/>
<path d="M55.023 53.7715C55.4917 54.0701 55.7369 54.4937 55.9257 55C56.0391 55.5321 55.9719 55.9402 55.7018 56.4144C55.3204 56.9421 54.8952 57.1507 54.2629 57.3375C53.6364 57.3375 53.093 57.1453 52.5903 56.7755C52.2374 56.4172 52.139 56.043 52.1101 55.5636C52.148 54.9383 52.4208 54.3672 52.8851 53.9375C53.5879 53.5577 54.2686 53.4837 55.023 53.7715Z" fill="#FF6A00"/>
<path d="M99.8723 28.1719C100.388 28.4992 100.86 29.123 100.992 29.7125C101.011 30.3224 100.892 30.7823 100.498 31.2598C100.06 31.6847 99.5308 31.8172 98.9289 31.8375C98.3104 31.7059 97.8475 31.4272 97.4086 30.9875C97.1104 30.4421 97.163 29.8761 97.3 29.2875C97.5036 28.9223 97.5036 28.9223 97.7344 28.65C97.7859 28.5886 97.8374 28.5273 97.8905 28.4641C98.4684 28.0117 99.1772 28.0453 99.8723 28.1719Z" fill="#FF6A00"/>
<path d="M56.1429 38.85C56.2948 39.0044 56.2948 39.0044 56.4008 39.1953C56.4375 39.2572 56.4742 39.3191 56.512 39.3829C56.6031 39.677 56.5758 39.8362 56.4687 40.125C56.235 40.3367 56.235 40.3367 55.9325 40.5367C55.8245 40.6092 55.7164 40.6816 55.6051 40.7563C55.4959 40.8285 55.3867 40.9006 55.2742 40.975C55.1784 41.0439 55.0827 41.1128 54.984 41.1838C53.9496 41.9271 53.1083 42.1936 51.7992 42.0375C51.2963 41.7972 51.2963 41.7972 51.1476 41.5063C51.1218 41.0513 51.1117 40.7254 51.3648 40.3375C52.0592 39.9736 52.8091 39.7553 53.5565 39.5191C54.1665 39.3245 54.7498 39.0953 55.3306 38.8272C55.654 38.727 55.8248 38.7386 56.1429 38.85Z" fill="#FF6A00"/>
<path d="M102.479 83.05C102.925 83.4274 103.211 83.902 103.322 84.4715C103.349 85.0369 103.223 85.3749 102.838 85.8125C102.443 86.1692 102.085 86.4328 101.535 86.4612C100.838 86.4292 100.304 86.1758 99.7977 85.7062C99.5195 85.1515 99.5373 84.5972 99.6891 84.0062C100.007 83.4065 100.358 83.1843 100.972 82.9172C101.515 82.7922 101.959 82.861 102.479 83.05Z" fill="#FF6A00"/>
<path d="M87.3094 34.7062C87.2266 35.127 87.1425 35.5475 87.0582 35.968C87.0351 36.0857 87.0119 36.2035 86.988 36.3249C86.5627 38.4369 86.5627 38.4369 86.1148 38.9562C85.8094 39.1223 85.8094 39.1223 85.4633 39.1687C84.728 38.7706 84.3126 38.1949 83.943 37.4687C83.8484 37.0945 83.8823 36.8595 84.0516 36.5125C84.6308 35.6759 86.2027 34.0849 87.3094 34.7062Z" fill="#FF6A00"/>
<path d="M36.9218 83.9C37.3324 84.3443 37.6953 84.8816 37.682 85.4937C37.5786 85.9748 37.4113 86.2847 37.0712 86.6492C36.57 86.958 36.0895 87.1548 35.4906 87.0435C34.9456 86.8604 34.4704 86.6034 34.1731 86.1047C34.001 85.4311 34.0421 84.9022 34.3898 84.3001C34.9821 83.5228 36.0833 83.4751 36.9218 83.9Z" fill="#FF6A00"/>
<path d="M50.1055 28.142C50.3169 28.1798 50.5285 28.2166 50.7402 28.2526C51.048 28.3049 51.3551 28.3601 51.6622 28.4159C51.7566 28.4314 51.8511 28.447 51.9484 28.4629C52.3922 28.5467 52.6132 28.5981 52.945 28.9128C53.1233 29.217 53.1671 29.3683 53.1023 29.7125C52.9367 29.92 52.8383 30.0187 52.5721 30.0729C51.7313 30.0624 50.9156 29.924 50.0909 29.7764C49.8452 29.7325 49.5993 29.6904 49.3533 29.6484C47.2205 29.2783 47.2205 29.2783 46.6206 28.8824C46.4781 28.65 46.4781 28.65 46.4713 28.3246C46.5867 28.0125 46.5867 28.0125 46.8039 27.8066C47.7504 27.4787 49.141 27.9678 50.1055 28.142Z" fill="#FF6A00"/>
<path d="M90.4586 32.7937C90.6691 32.8113 90.8796 32.8288 91.0966 32.8469C91.8425 32.902 92.5736 32.9452 93.3181 32.8572C94.2699 32.7475 94.2699 32.7475 94.748 32.973C94.9771 33.4681 94.8694 33.7913 94.7103 34.3003C94.4992 34.8057 94.2399 35.0389 93.7435 35.2707C92.7197 35.4826 91.9314 35.2783 91.0414 34.7486C90.8078 34.5974 90.5784 34.4399 90.35 34.2812C90.3858 33.7904 90.4216 33.2995 90.4586 32.7937Z" fill="#FF6A00"/>
<path d="M92.1961 28.65C92.3525 28.8731 92.462 29.1048 92.5809 29.3489C92.8141 29.7282 93.1335 29.94 93.5005 30.1898C93.7164 30.35 93.7164 30.35 93.9336 30.6688C93.9223 30.9999 93.8038 31.118 93.5807 31.3727C92.8682 31.9747 92.0396 31.9657 91.1441 31.9106C91.0205 31.9049 91.0205 31.9049 90.8945 31.8991C90.4844 31.8754 90.2639 31.8522 89.9156 31.625C90.0818 30.5066 90.4932 29.5326 91.2188 28.65C91.5869 28.4699 91.8083 28.5342 92.1961 28.65Z" fill="#FF6A00"/>
<path d="M109.87 45.4508C110.289 45.7927 110.418 46.1375 110.494 46.6594C110.427 47.1179 110.268 47.3913 109.897 47.6687C109.425 47.8966 109.118 47.9086 108.614 47.7551C107.993 47.4096 107.993 47.4096 107.875 47.0258C107.811 46.4771 107.809 46.1143 108.159 45.65C108.713 45.2806 109.243 45.2 109.87 45.4508Z" fill="#FF6A00"/>
<path d="M38.225 27.5875C38.6136 27.962 38.8027 28.4004 38.8494 28.9289C38.8245 29.3089 38.7252 29.5046 38.449 29.7723C38.0616 30.0477 37.7379 30.115 37.2638 30.0786C36.8752 29.9998 36.6626 29.877 36.3789 29.6062C36.1443 29.1539 36.1351 28.8432 36.2839 28.3578C36.5262 27.9469 36.7055 27.6619 37.173 27.5012C37.5674 27.4742 37.8424 27.4739 38.225 27.5875Z" fill="#FF6A00"/>
<path d="M25.5195 55.5312C25.8416 55.7954 26.0141 56.0903 26.1181 56.4871C26.1572 56.924 26.0548 57.1954 25.7842 57.5434C25.5347 57.7915 25.3941 57.875 25.0512 58.0016C24.5058 57.9654 24.1125 57.7563 23.6734 57.4437C23.4415 56.9899 23.5282 56.4932 23.6802 56.0293C24.1138 55.4409 24.8382 55.2593 25.5195 55.5312Z" fill="#FF6A00"/>
<path d="M58.3149 17.0687C58.763 17.422 58.9451 17.7275 59.0072 18.284C58.9595 18.7273 58.8502 18.8825 58.5321 19.1937C58.1258 19.4588 57.8075 19.4834 57.3376 19.4062C57.0035 19.2907 56.7837 19.1598 56.5774 18.875C56.4549 18.3312 56.4868 17.8732 56.7539 17.3809C57.2511 16.9839 57.6987 16.8852 58.3149 17.0687Z" fill="#FF6A00"/>
<path d="M77.6446 16.6438C77.9562 16.8827 78.1674 17.1265 78.2961 17.4938C78.3451 17.9327 78.3468 18.1579 78.1061 18.5363C77.7228 18.901 77.7228 18.901 77.4274 18.9813C76.8052 18.9619 76.4698 18.8943 76.0157 18.45C75.841 18.1082 75.8564 17.7582 75.9071 17.3875C76.0942 17.0214 76.2371 16.8135 76.5926 16.5973C76.9814 16.5176 77.26 16.548 77.6446 16.6438Z" fill="#FF6A00"/>
<path d="M45.5007 91.55C45.817 91.8183 46.0011 92.1143 46.0959 92.5133C46.1263 92.9378 46.0584 93.1259 45.7858 93.4559C45.3418 93.7972 45.0909 93.8275 44.5234 93.7812C43.9219 93.4543 43.9219 93.4543 43.7632 93.1437C43.7046 92.6648 43.6977 92.2991 43.9465 91.8754C44.4462 91.4393 44.8521 91.3573 45.5007 91.55Z" fill="#FF6A00"/>
<path d="M86.0062 58.4C86.355 58.7129 86.5289 59.0198 86.6035 59.4758C86.5397 59.8347 86.4584 60.0289 86.2234 60.3125C85.8776 60.5381 85.6628 60.6313 85.2461 60.6313C84.8109 60.4893 84.5752 60.3293 84.2687 59.9938C84.1623 59.5748 84.2291 59.2407 84.3909 58.8449C84.8498 58.3211 85.3374 58.1858 86.0062 58.4Z" fill="#FF6A00"/>
<path d="M42.4602 24.2937C42.7849 24.6273 42.8812 24.8497 42.9557 25.3031C42.8764 25.7857 42.7184 25.9848 42.3516 26.3125C42.0223 26.4386 41.8322 26.4653 41.4973 26.3474C41.1807 26.1906 40.9775 26.0452 40.7702 25.7613C40.6986 25.311 40.7538 24.9251 40.9399 24.5062C41.4016 24.1405 41.9098 24.0887 42.4602 24.2937Z" fill="#FF6A00"/>
<path d="M105.227 75.825C105.546 76.1606 105.649 76.3908 105.73 76.841C105.662 77.2063 105.662 77.2063 105.363 77.5117C104.906 77.8038 104.906 77.8038 104.576 77.8438C104.347 77.7686 104.347 77.7686 104.121 77.6512C104.046 77.6132 103.97 77.5753 103.892 77.5362C103.707 77.4188 103.707 77.4188 103.598 77.2063C103.596 76.9643 103.596 76.9643 103.619 76.6816C103.625 76.5886 103.631 76.4956 103.637 76.3998C103.727 76.0722 103.846 75.9933 104.141 75.825C104.561 75.6882 104.8 75.715 105.227 75.825Z" fill="#FF6A00"/>
<path d="M52.5594 18.875C52.8938 19.2273 52.9938 19.4143 52.9938 19.8977C52.8546 20.3574 52.6789 20.5581 52.254 20.7875C51.8536 20.7875 51.589 20.5713 51.2563 20.3625C51.0859 20.1958 51.1211 20.0287 51.1138 19.7981C51.1173 19.4401 51.1237 19.3324 51.3445 19.0344C51.7731 18.7469 52.0687 18.728 52.5594 18.875Z" fill="#FF6A00"/>
<path d="M88.9383 32.1563C89.2631 32.4264 89.3555 32.598 89.4338 33.0063C89.3502 33.4423 89.1912 33.5948 88.8297 33.8563C88.4447 33.919 88.2338 33.878 87.8728 33.7367C87.6352 33.5375 87.6352 33.5375 87.5266 33.2387C87.5266 32.8293 87.6315 32.6068 87.8524 32.2625C88.2016 32.0917 88.5606 32.092 88.9383 32.1563Z" fill="#FF6A00"/>
<path d="M109.177 71.9601C109.571 72 109.571 72 109.781 72.2324C109.903 72.5467 109.949 72.7312 109.897 73.0625C109.775 73.3082 109.775 73.3082 109.571 73.4875C109.238 73.5291 108.991 73.5064 108.668 73.4211C108.485 73.275 108.485 73.275 108.383 72.9762C108.375 72.5801 108.464 72.42 108.702 72.1062C108.811 72 108.811 72 109.177 71.9601Z" fill="#FF6A00"/>
<path d="M92.0875 65.8375C91.9255 66.2407 91.6795 66.4336 91.3273 66.6875C91.3273 66.3687 91.3273 66.3687 91.5852 66.0832C91.8703 65.8375 91.8703 65.8375 92.0875 65.8375ZM90.8929 66.7937C90.9646 66.8639 91.0363 66.934 91.1101 67.0062C90.9309 67.1465 90.7517 67.2867 90.5671 67.4312C90.5671 67.1125 90.5671 67.1125 90.73 66.9332C90.8107 66.8642 90.8107 66.8642 90.8929 66.7937Z" fill="#FF6A00"/>
</g>
<defs>
<clipPath id="clip0_66_84">
<rect width="139" height="136" fill="white" transform="translate(0 -13)"/>
</clipPath>
</defs>
</svg>
